<?xml version="1.0" encoding="UTF-8" standalone="no"?> <svg width="512" height="512" viewBox="0 0 512 512" fill="none" xmlns="http://www.w3.org/2000/svg">
<g clip-path="url(#clip0_151_113)">
<path d="M512 256C512 114.615 397.385 0 256 0C114.615 0 0 114.615 0 256C0 397.385 114.615 512 256 512C397.385 512 512 397.385 512 256Z" fill="#E2E7F1"/>
<path d="M511.5 256C511.5 114.891 397.109 0.5 256 0.5C114.891 0.5 0.5 114.891 0.5 256C0.5 397.109 114.891 511.5 256 511.5C397.109 511.5 511.5 397.109 511.5 256Z" stroke="#707070"/>
<path d="M298.023 151.984C291.823 161.947 292.423 173.749 299.362 178.343C306.301 182.937 316.962 178.589 323.162 168.625C329.362 158.661 328.762 146.86 321.823 142.266C314.884 137.672 304.223 142.021 298.023 151.984Z" fill="#F5F5FF" stroke="#2E2E2E" stroke-width="0.535" stroke-linecap="round" stroke-linejoin="round"/>
<path d="M316.602 147.051C318.114 147.642 319.444 148.62 320.459 149.888C321.473 151.155 322.136 152.668 322.38 154.272C322.625 155.877 322.443 157.518 321.853 159.031C321.262 160.543 320.284 161.873 319.017 162.888" stroke="#2E2E2E" stroke-width="0.535" stroke-linecap="round" stroke-linejoin="round"/>
<path d="M214.282 151.984C220.482 161.947 219.882 173.749 212.943 178.343C206.004 182.937 195.343 178.589 189.143 168.625C182.943 158.661 183.543 146.86 190.482 142.266C197.421 137.672 208.078 142.021 214.282 151.984Z" fill="#F5F5FF" stroke="#2E2E2E" stroke-width="0.535" stroke-linecap="round" stroke-linejoin="round"/>
<path d="M195.702 147.051C194.191 147.642 192.861 148.62 191.847 149.888C190.832 151.155 190.17 152.667 189.925 154.272C189.68 155.877 189.861 157.518 190.451 159.03C191.041 160.542 192.019 161.873 193.285 162.888" stroke="#2E2E2E" stroke-width="0.535" stroke-linecap="round" stroke-linejoin="round"/>
<path d="M287.1 267.301C287.234 271.254 286.579 275.193 285.174 278.89C283.77 282.586 281.643 285.966 278.919 288.833C276.194 291.699 272.926 293.994 269.305 295.585C265.684 297.175 261.783 298.028 257.829 298.095C253.875 298.162 249.947 297.441 246.275 295.974C242.602 294.507 239.259 292.324 236.439 289.552C233.619 286.779 231.379 283.473 229.85 279.826C228.321 276.179 227.533 272.264 227.533 268.309C227.533 267.973 227.533 267.637 227.561 267.301L230.869 222.901L231.709 211.659L233.364 189.598H281.27L283.903 224.469L285.781 249.838L287.1 267.301Z" fill="#F5F5FF" stroke="#2E2E2E" stroke-width="0.559" stroke-linecap="round" stroke-linejoin="round"/>
<path d="M285.781 249.834C270.057 250.955 252.734 243.134 240.849 227.941C236.966 223.026 233.881 217.531 231.708 211.656L233.363 189.595H281.269L283.902 224.466L285.781 249.834Z" fill="#2E2E2E"/>
<path d="M309.026 181.513C306.96 186.657 304.345 191.563 301.226 196.146C294.977 205.475 286.698 214.227 278.433 219.782C269.37 225.856 257.493 227.839 247.156 224.314C239.023 221.545 232.315 215.725 226.316 209.563C218.838 201.892 212.016 193.303 208.175 183.292C205.198 175.5 203.924 166.836 203.583 157.966C203.109 145.673 204.428 132.996 205.483 121.696C206.354 113.327 209.156 105.275 213.669 98.1742C218.183 91.0733 224.284 85.1178 231.491 80.777C238.572 76.6065 246.526 74.1432 254.724 73.5826C262.923 73.022 271.139 74.3795 278.721 77.5475C286.303 80.7154 293.042 85.6066 298.405 91.8331C303.767 98.0596 307.605 105.45 309.613 113.418C312.472 124.703 311.494 136.418 311.672 147.925C311.715 151.152 311.865 154.413 311.938 157.67C312.158 165.765 311.99 173.872 309.026 181.513Z" fill="#F5F5FF" stroke="#2E2E2E" stroke-width="0.535" stroke-linecap="round" stroke-linejoin="round"/>
<path d="M270.905 139.678C272.032 136.609 274.159 134.008 276.944 132.295C279.668 130.55 282.76 129.462 285.976 129.116C289.193 128.771 292.445 129.177 295.477 130.304C298.558 131.38 301.195 133.447 302.977 136.18L294.365 136.586C291.757 136.731 289.284 136.927 286.837 137.178C284.39 137.429 281.937 137.76 279.366 138.178C276.773 138.575 274.143 139.069 270.905 139.678Z" fill="#2E2E2E"/>
<path d="M246.414 139.678C243.176 139.069 240.546 138.578 237.95 138.178C235.382 137.764 232.927 137.441 230.482 137.178C228.037 136.915 225.562 136.732 222.954 136.586L214.342 136.18C216.123 133.446 218.761 131.379 221.842 130.304C224.874 129.177 228.126 128.77 231.342 129.116C234.558 129.462 237.649 130.55 240.372 132.295C243.159 134.006 245.288 136.607 246.414 139.678Z" fill="#2E2E2E"/>
<path d="M269.262 161.471L271.043 157.915C275.417 150.971 281.618 149.436 287.306 150.171C291.072 150.713 294.609 152.302 297.515 154.758L298.267 155.377" stroke="#2E2E2E" stroke-width="1.198" stroke-linecap="round" stroke-linejoin="round"/>
<path d="M293.302 158.188C295.048 157.632 296.652 156.703 298.002 155.465" stroke="#2E2E2E" stroke-width="0.514" stroke-linecap="round" stroke-linejoin="round"/>
<path d="M277.224 154.953C277.224 153.966 277.517 153.002 278.065 152.181C278.614 151.361 279.393 150.722 280.305 150.344C281.217 149.967 282.22 149.868 283.187 150.061C284.155 150.254 285.044 150.729 285.742 151.427C286.439 152.125 286.914 153.014 287.106 153.982C287.299 154.949 287.2 155.953 286.822 156.864C286.444 157.776 285.805 158.555 284.984 159.103C284.163 159.651 283.199 159.943 282.212 159.943C280.889 159.942 279.62 159.416 278.685 158.481C277.75 157.545 277.224 156.276 277.224 154.953Z" fill="#2E2E2E"/>
<path d="M267.735 153.657C269.492 150.159 272.411 147.382 275.991 145.8C279.685 144.168 283.808 143.778 287.742 144.689" stroke="#2E2E2E" stroke-width="0.514" stroke-linecap="round" stroke-linejoin="round"/>
<path d="M248.056 158.552L246.275 154.996C241.901 148.052 235.7 146.515 230.012 147.252C226.247 147.792 222.709 149.381 219.803 151.836L219.048 152.455" stroke="#2E2E2E" stroke-width="1.198" stroke-linecap="round" stroke-linejoin="round"/>
<path d="M224.017 155.27C222.271 154.713 220.667 153.783 219.317 152.544" stroke="#2E2E2E" stroke-width="0.514" stroke-linecap="round" stroke-linejoin="round"/>
<path d="M240.094 152.034C240.095 151.047 239.802 150.082 239.254 149.261C238.706 148.44 237.927 147.8 237.015 147.422C236.103 147.044 235.1 146.945 234.132 147.138C233.164 147.33 232.275 147.805 231.576 148.503C230.878 149.201 230.403 150.09 230.21 151.058C230.018 152.026 230.116 153.029 230.494 153.941C230.872 154.853 231.511 155.632 232.332 156.181C233.152 156.729 234.117 157.022 235.104 157.022C236.427 157.022 237.696 156.496 238.632 155.561C239.567 154.626 240.093 153.357 240.094 152.034Z" fill="#2E2E2E"/>
<path d="M249.584 150.738C247.827 147.24 244.907 144.462 241.326 142.881C237.633 141.249 233.509 140.858 229.575 141.768" stroke="#2E2E2E" stroke-width="0.514" stroke-linecap="round" stroke-linejoin="round"/>
<path d="M250.885 177.609C248.227 177.932 246.71 175.049 247.958 172.681" stroke="#2E2E2E" stroke-width="0.621" stroke-linecap="round" stroke-linejoin="round"/>
<path d="M266.435 177.875C269.093 178.198 270.61 175.315 269.361 172.947" stroke="#2E2E2E" stroke-width="0.621" stroke-linecap="round" stroke-linejoin="round"/>
<path d="M250.65 177.218C252.853 179.123 255.656 180.193 258.568 180.24C261.48 180.288 264.316 179.309 266.579 177.476" stroke="#2E2E2E" stroke-width="0.621" stroke-linecap="round" stroke-linejoin="round"/>
<path d="M255.046 194.271C256.016 195.207 257.312 195.729 258.659 195.728C260.007 195.727 261.302 195.203 262.271 194.266C263.771 192.819 266.471 193.707 268.533 194.005C270.569 194.465 272.671 194.558 274.74 194.278" stroke="#2E2E2E" stroke-width="0.527" stroke-linecap="round" stroke-linejoin="round"/>
<path d="M255.046 194.266C253.546 192.819 250.846 193.707 248.787 194.005C246.751 194.465 244.649 194.558 242.58 194.278" stroke="#2E2E2E" stroke-width="0.527" stroke-linecap="round" stroke-linejoin="round"/>
<path d="M249.113 200.151C254.444 201.992 260.197 202.235 265.664 200.851" stroke="#2E2E2E" stroke-width="0.527" stroke-linecap="round" stroke-linejoin="round"/>
<path d="M258.644 184.304C259.328 183.253 260.218 182.352 261.261 181.655C262.303 180.959 263.477 180.482 264.71 180.254C267.056 179.758 269.476 179.724 271.835 180.154C275.359 180.936 278.803 182.044 282.122 183.462L284.998 184.523C285.9 184.891 286.861 185.093 287.834 185.117C290.42 185.288 294.221 184.174 299.051 183.793C298.582 188.563 296.889 192.678 292.661 195.936C290.335 197.639 287.567 198.637 284.689 198.81C281.973 198.974 279.255 198.536 276.729 197.526C273.084 196.027 269.79 193.787 267.057 190.948C265.891 189.807 264.805 188.681 263.579 187.535C262.161 186.146 260.484 185.049 258.644 184.304Z" fill="#2E2E2E"/>
<path d="M258.672 184.304C256.833 185.049 255.158 186.145 253.739 187.532C252.513 188.678 251.427 189.804 250.258 190.945C247.526 193.786 244.232 196.026 240.586 197.523C238.061 198.533 235.344 198.972 232.629 198.807C229.751 198.635 226.983 197.637 224.657 195.933C220.429 192.675 218.734 188.56 218.265 183.79C223.098 184.171 226.899 185.285 229.485 185.114C230.459 185.09 231.42 184.888 232.321 184.52L235.197 183.459C238.516 182.041 241.958 180.934 245.481 180.151C247.841 179.721 250.261 179.755 252.608 180.251C253.841 180.479 255.015 180.956 256.057 181.653C257.1 182.35 257.99 183.252 258.672 184.304Z" fill="#2E2E2E"/>
<path d="M371.988 381.528C349.125 391.845 328.25 395.028 325.366 388.628C322.482 382.228 338.677 368.689 361.541 358.372C384.405 348.055 405.277 344.872 408.163 351.272C411.049 357.672 394.852 371.211 371.988 381.528Z" fill="#2E2E2E"/>
<path d="M361.942 437.687L351.242 411.687L342.673 390.855L335.451 373.281L319.579 334.711C311.221 314.411 319.434 291.936 337.459 285.762C340.538 284.713 343.772 284.193 347.024 284.222C347.317 284.222 347.613 284.227 347.909 284.255C361.885 284.762 375.387 295.136 380.799 310.983L393.646 348.537L399.399 365.377L424.251 438.145" fill="#F5F5FF"/>
<path d="M361.942 437.687L351.242 411.687L342.673 390.855L335.451 373.281L319.579 334.711C311.221 314.411 319.434 291.936 337.459 285.762C340.538 284.713 343.772 284.193 347.024 284.222C347.317 284.222 347.613 284.227 347.909 284.255C361.885 284.762 375.387 295.136 380.799 310.983L393.646 348.537L399.399 365.377L424.251 438.145" stroke="#2E2E2E" stroke-width="0.535" stroke-linecap="round" stroke-linejoin="round"/>
<path d="M407.669 350.497C403.441 345.16 383.414 348.521 361.551 358.361C338.683 368.686 322.467 382.235 325.376 388.645C325.445 388.779 325.526 388.907 325.619 389.026L325.376 389.126L310.488 354.226L300.118 329.914C290.207 306.664 300.913 280.16 323.435 272.293C327.588 270.83 331.958 270.081 336.36 270.076C351.778 270.076 366.574 279.222 374.16 294.053L407.669 350.497Z" fill="#2E2E2E"/>
<path d="M140.874 381.528C163.737 391.845 184.612 395.028 187.496 388.628C190.38 382.228 174.185 368.689 151.321 358.372C128.457 348.055 107.585 344.872 104.699 351.272C101.813 357.672 118.01 371.211 140.874 381.528Z" fill="#2E2E2E"/>
<path d="M88.0552 437.747L113.439 365.19L119.315 348.365L132.436 310.906C138.071 294.779 152.105 284.394 166.381 284.394H166.569C169.758 284.415 172.921 284.958 175.933 286.004C193.911 292.311 201.989 314.851 193.482 335.081L177.327 373.535V373.56L169.977 391.06L162.14 409.708L150.36 437.747" fill="#F5F5FF"/>
<path d="M88.0552 437.747L113.439 365.19L119.315 348.365L132.436 310.906C138.071 294.779 152.105 284.394 166.381 284.394H166.569C169.758 284.415 172.921 284.958 175.933 286.004C193.911 292.311 201.989 314.851 193.482 335.081L177.327 373.535V373.56L169.977 391.06L162.14 409.708L150.36 437.747" stroke="#2E2E2E" stroke-width="0.535" stroke-linecap="round" stroke-linejoin="round"/>
<path d="M105.193 350.497C109.421 345.16 129.448 348.521 151.311 358.361C174.179 368.686 190.395 382.235 187.486 388.645C187.417 388.779 187.336 388.907 187.243 389.026L187.486 389.126L212.744 329.91C222.655 306.66 211.944 280.156 189.424 272.289C185.273 270.826 180.904 270.076 176.502 270.072C161.084 270.072 146.288 279.218 138.702 294.049L105.193 350.497Z" fill="#2E2E2E"/>
<path d="M351.825 438.945H160.477L161.47 410.904L162.17 390.672L163.055 365.824L165.899 285.593L166.328 273.652L172.503 271.426L208.379 258.465L215.302 255.965L218.737 254.704L227.699 249.883H283.271L293.333 254.517L296.741 255.751L303.664 258.251L340.582 271.582L346.271 273.648L346.671 285.615L348.201 330.802L349.355 365.336L350.187 390.318V390.452L350.938 413.019L351.825 438.945Z" fill="#3D79F0" stroke="#2E2E2E" stroke-width="0.5" stroke-linecap="round" stroke-linejoin="round"/>
<path d="M310.472 366.471C305.021 366.471 299.794 364.305 295.94 360.45C292.086 356.596 289.921 351.368 289.921 345.917V310.566H331.021V345.916C331.021 351.367 328.856 356.594 325.003 360.449C321.149 364.303 315.922 366.469 310.472 366.471Z" fill="#F5F5FF" stroke="#2E2E2E" stroke-width="0.5" stroke-linecap="round" stroke-linejoin="round"/>
<path d="M289.879 320.275H331.066" stroke="#2E2E2E" stroke-width="0.5" stroke-linecap="round" stroke-linejoin="round"/>
<path d="M286.246 249.132L291.981 253.932L295.249 255.108C294.025 264.636 289.379 273.393 282.175 279.748C274.971 286.102 265.703 289.62 256.097 289.646C246.491 289.671 237.204 286.202 229.967 279.886C222.73 273.57 218.037 264.837 216.763 255.316L220.091 254.107L229.4 248.487" fill="#F5F5FF"/>
<path d="M286.246 249.132L291.981 253.932L295.249 255.108C294.025 264.636 289.379 273.393 282.175 279.748C274.971 286.102 265.703 289.62 256.097 289.646C246.491 289.671 237.204 286.202 229.967 279.886C222.73 273.57 218.037 264.837 216.763 255.316L220.091 254.107L229.4 248.487" stroke="#2E2E2E" stroke-width="0.5" stroke-linecap="round" stroke-linejoin="round"/>
<path d="M299.909 257.25C298.54 267.908 293.341 277.705 285.283 284.813C277.224 291.921 266.856 295.856 256.11 295.885C245.365 295.913 234.976 292.032 226.88 284.967C218.784 277.901 213.534 268.132 212.109 257.481" stroke="#2E2E2E" stroke-width="0.559" stroke-linecap="round" stroke-linejoin="round"/>
<path d="M191.754 320.108L198.296 312.377" stroke="#2E2E2E" stroke-width="0.5" stroke-linecap="round" stroke-linejoin="round"/>
<path d="M188.186 296.32L192.349 300.483" stroke="#2E2E2E" stroke-width="0.5" stroke-linecap="round" stroke-linejoin="round"/>
<path d="M201.864 292.157L207.811 287.399" stroke="#2E2E2E" stroke-width="0.5" stroke-linecap="round" stroke-linejoin="round"/>
<path d="M191.754 277.289L198.296 282.047" stroke="#2E2E2E" stroke-width="0.5" stroke-linecap="round" stroke-linejoin="round"/>
<path d="M172.129 308.809L177.481 304.646" stroke="#2E2E2E" stroke-width="0.5" stroke-linecap="round" stroke-linejoin="round"/>
<path d="M175.102 284.426L181.049 291.562" stroke="#2E2E2E" stroke-width="0.5" stroke-linecap="round" stroke-linejoin="round"/>
<path d="M176.886 345.087L186.402 338.545" stroke="#2E2E2E" stroke-width="0.5" stroke-linecap="round" stroke-linejoin="round"/>
<path d="M177.481 326.056L182.239 330.814" stroke="#2E2E2E" stroke-width="0.5" stroke-linecap="round" stroke-linejoin="round"/>
<path d="M207.217 330.218L213.164 325.461" stroke="#2E2E2E" stroke-width="0.5" stroke-linecap="round" stroke-linejoin="round"/>
<path d="M217.327 302.862L223.274 311.783" stroke="#2E2E2E" stroke-width="0.5" stroke-linecap="round" stroke-linejoin="round"/>
<path d="M233.979 326.651L239.331 321.893" stroke="#2E2E2E" stroke-width="0.5" stroke-linecap="round" stroke-linejoin="round"/>
<path d="M209.596 349.25L215.543 356.386" stroke="#2E2E2E" stroke-width="0.5" stroke-linecap="round" stroke-linejoin="round"/>
<path d="M185.213 364.712L191.755 358.17" stroke="#2E2E2E" stroke-width="0.5" stroke-linecap="round" stroke-linejoin="round"/>
<path d="M198.296 381.364L203.054 377.796" stroke="#2E2E2E" stroke-width="0.5" stroke-linecap="round" stroke-linejoin="round"/>
<path d="M173.913 386.717L179.86 392.664" stroke="#2E2E2E" stroke-width="0.5" stroke-linecap="round" stroke-linejoin="round"/>
<path d="M172.724 368.875L177.482 364.712" stroke="#2E2E2E" stroke-width="0.5" stroke-linecap="round" stroke-linejoin="round"/>
<path d="M194.133 392.664L201.27 399.206" stroke="#2E2E2E" stroke-width="0.5" stroke-linecap="round" stroke-linejoin="round"/>
<path d="M175.102 414.073L182.833 409.91" stroke="#2E2E2E" stroke-width="0.5" stroke-linecap="round" stroke-linejoin="round"/>
<path d="M196.512 416.452L203.054 422.399" stroke="#2E2E2E" stroke-width="0.5" stroke-linecap="round" stroke-linejoin="round"/>
<path d="M183.429 430.725L188.187 426.562" stroke="#2E2E2E" stroke-width="0.5" stroke-linecap="round" stroke-linejoin="round"/>
<path d="M225.653 424.778L231.006 429.536" stroke="#2E2E2E" stroke-width="0.5" stroke-linecap="round" stroke-linejoin="round"/>
<path d="M220.301 407.531L226.843 399.8" stroke="#2E2E2E" stroke-width="0.5" stroke-linecap="round" stroke-linejoin="round"/>
<path d="M218.517 379.58L223.869 384.338" stroke="#2E2E2E" stroke-width="0.5" stroke-linecap="round" stroke-linejoin="round"/>
<path d="M235.763 368.28L241.71 362.333" stroke="#2E2E2E" stroke-width="0.5" stroke-linecap="round" stroke-linejoin="round"/>
<path d="M239.331 343.302L243.494 346.275" stroke="#2E2E2E" stroke-width="0.5" stroke-linecap="round" stroke-linejoin="round"/>
<path d="M257.173 331.408L264.904 325.461" stroke="#2E2E2E" stroke-width="0.5" stroke-linecap="round" stroke-linejoin="round"/>
<path d="M251.226 311.188L257.173 317.135" stroke="#2E2E2E" stroke-width="0.5" stroke-linecap="round" stroke-linejoin="round"/>
<path d="M233.384 302.267L237.547 306.43" stroke="#2E2E2E" stroke-width="0.5" stroke-linecap="round" stroke-linejoin="round"/>
<path d="M269.067 307.619L273.825 302.862" stroke="#2E2E2E" stroke-width="0.5" stroke-linecap="round" stroke-linejoin="round"/>
<path d="M291.072 292.752L295.83 297.51" stroke="#2E2E2E" stroke-width="0.5" stroke-linecap="round" stroke-linejoin="round"/>
<path d="M309.508 293.347L316.05 286.21" stroke="#2E2E2E" stroke-width="0.5" stroke-linecap="round" stroke-linejoin="round"/>
<path d="M305.94 273.721L310.698 279.668" stroke="#2E2E2E" stroke-width="0.5" stroke-linecap="round" stroke-linejoin="round"/>
<path d="M329.133 291.562L335.675 287.994" stroke="#2E2E2E" stroke-width="0.5" stroke-linecap="round" stroke-linejoin="round"/>
<path d="M326.755 276.695L330.323 281.452" stroke="#2E2E2E" stroke-width="0.5" stroke-linecap="round" stroke-linejoin="round"/>
<path d="M273.825 342.113L279.772 337.355" stroke="#2E2E2E" stroke-width="0.5" stroke-linecap="round" stroke-linejoin="round"/>
<path d="M279.177 324.272L283.34 327.84" stroke="#2E2E2E" stroke-width="0.5" stroke-linecap="round" stroke-linejoin="round"/>
<path d="M258.957 361.739L262.525 358.765" stroke="#2E2E2E" stroke-width="0.5" stroke-linecap="round" stroke-linejoin="round"/>
<path d="M248.252 383.148L253.604 378.985" stroke="#2E2E2E" stroke-width="0.5" stroke-linecap="round" stroke-linejoin="round"/>
<path d="M281.556 371.254L285.719 376.607" stroke="#2E2E2E" stroke-width="0.5" stroke-linecap="round" stroke-linejoin="round"/>
<path d="M267.283 389.69L273.825 386.717" stroke="#2E2E2E" stroke-width="0.5" stroke-linecap="round" stroke-linejoin="round"/>
<path d="M248.847 400.395L255.389 404.558" stroke="#2E2E2E" stroke-width="0.5" stroke-linecap="round" stroke-linejoin="round"/>
<path d="M261.336 422.399L267.283 415.857" stroke="#2E2E2E" stroke-width="0.5" stroke-linecap="round" stroke-linejoin="round"/>
<path d="M241.116 414.073L245.874 418.236" stroke="#2E2E2E" stroke-width="0.5" stroke-linecap="round" stroke-linejoin="round"/>
<path d="M246.468 428.346L251.226 424.183" stroke="#2E2E2E" stroke-width="0.5" stroke-linecap="round" stroke-linejoin="round"/>
<path d="M276.799 409.91L282.151 405.747" stroke="#2E2E2E" stroke-width="0.5" stroke-linecap="round" stroke-linejoin="round"/>
<path d="M295.235 396.232L299.993 400.99" stroke="#2E2E2E" stroke-width="0.5" stroke-linecap="round" stroke-linejoin="round"/>
<path d="M305.345 387.311L310.698 383.743" stroke="#2E2E2E" stroke-width="0.5" stroke-linecap="round" stroke-linejoin="round"/>
<path d="M298.208 374.228L301.776 377.201" stroke="#2E2E2E" stroke-width="0.5" stroke-linecap="round" stroke-linejoin="round"/>
<path d="M289.288 418.236L294.64 414.668" stroke="#2E2E2E" stroke-width="0.5" stroke-linecap="round" stroke-linejoin="round"/>
<path d="M307.129 425.968L312.481 421.21" stroke="#2E2E2E" stroke-width="0.5" stroke-linecap="round" stroke-linejoin="round"/>
<path d="M321.997 405.747L326.755 401.584" stroke="#2E2E2E" stroke-width="0.5" stroke-linecap="round" stroke-linejoin="round"/>
<path d="M311.887 394.448L316.05 398.016" stroke="#2E2E2E" stroke-width="0.5" stroke-linecap="round" stroke-linejoin="round"/>
<path d="M330.917 386.716L337.459 380.769" stroke="#2E2E2E" stroke-width="0.5" stroke-linecap="round" stroke-linejoin="round"/>
<path d="M324.97 371.254L329.728 376.012" stroke="#2E2E2E" stroke-width="0.5" stroke-linecap="round" stroke-linejoin="round"/>
<path d="M336.865 365.307L341.028 361.144" stroke="#2E2E2E" stroke-width="0.5" stroke-linecap="round" stroke-linejoin="round"/>
<path d="M339.244 336.166L342.217 340.924" stroke="#2E2E2E" stroke-width="0.5" stroke-linecap="round" stroke-linejoin="round"/>
<path d="M336.27 321.297L341.028 316.54" stroke="#2E2E2E" stroke-width="0.5" stroke-linecap="round" stroke-linejoin="round"/>
<path d="M335.675 301.673L338.648 306.43" stroke="#2E2E2E" stroke-width="0.5" stroke-linecap="round" stroke-linejoin="round"/>
<path d="M321.402 299.294L323.186 302.267" stroke="#2E2E2E" stroke-width="0.5" stroke-linecap="round" stroke-linejoin="round"/>
<path d="M330.323 424.778L335.081 420.615" stroke="#2E2E2E" stroke-width="0.5" stroke-linecap="round" stroke-linejoin="round"/>
<path d="M333.296 408.126L336.864 411.694" stroke="#2E2E2E" stroke-width="0.5" stroke-linecap="round" stroke-linejoin="round"/>
<path d="M341.622 398.611L345.19 403.369" stroke="#2E2E2E" stroke-width="0.5" stroke-linecap="round" stroke-linejoin="round"/>
<path d="M278.583 433.699L285.72 429.536" stroke="#2E2E2E" stroke-width="0.5" stroke-linecap="round" stroke-linejoin="round"/>
<path d="M276.204 420.615L280.962 422.994" stroke="#2E2E2E" stroke-width="0.5" stroke-linecap="round" stroke-linejoin="round"/>
<path d="M339.838 428.941L344.596 433.104" stroke="#2E2E2E" stroke-width="0.5" stroke-linecap="round" stroke-linejoin="round"/>
</g>
<defs>
<clipPath id="clip0_151_113">
<rect width="512" height="512" fill="white"/>
</clipPath>
</defs>
</svg>
